HIERARCHY
ROOT root
{
	OFFSET 0.000000 0.000000 0.000000
	CHANNELS 6 Xposition Yposition Zposition Zrotation Yrotation Xrotation
	JOINT lhip
	{
		OFFSET 0.058581 -0.082280 -0.017664
		CHANNELS 3 Zrotation Yrotation Xrotation
		JOINT lknee
		{
			OFFSET 0.043451 -0.386469 0.008037
			CHANNELS 3 Zrotation Yrotation Xrotation
			JOINT lankle
			{
				OFFSET -0.014790 -0.426874 -0.037428
				CHANNELS 3 Zrotation Yrotation Xrotation
				JOINT ltoe
				{
					OFFSET 0.041054 -0.060286 0.122042
					CHANNELS 3 Zrotation Yrotation Xrotation
					End Site
					{
						OFFSET 0.000000 0.000000 0.000000
					}
				}
			}
		}
	}
	JOINT rhip
	{
		OFFSET -0.060310 -0.090513 -0.013543
		CHANNELS 3 Zrotation Yrotation Xrotation
		JOINT rknee
		{
			OFFSET -0.043257 -0.383688 -0.004843
			CHANNELS 3 Zrotation Yrotation Xrotation
			JOINT rankle
			{
				OFFSET 0.019056 -0.420046 -0.034562
				CHANNELS 3 Zrotation Yrotation Xrotation
				JOINT rtoe
				{
					OFFSET -0.034840 -0.062106 0.130323
					CHANNELS 3 Zrotation Yrotation Xrotation
					End Site
					{
						OFFSET 0.000000 0.000000 0.000000
					}
				}
			}
		}
	}
	JOINT lowerback
	{
		OFFSET 0.004439 0.124404 -0.038385
		CHANNELS 3 Zrotation Yrotation Xrotation
		JOINT upperback
		{
			OFFSET 0.004488 0.137956 0.026820
			CHANNELS 3 Zrotation Yrotation Xrotation
			JOINT chest
			{
				OFFSET -0.002265 0.056032 0.002855
				CHANNELS 3 Zrotation Yrotation Xrotation
				JOINT lowerneck
				{
					OFFSET -0.013390 0.211636 -0.033468
					CHANNELS 3 Zrotation Yrotation Xrotation
					JOINT upperneck
					{
						OFFSET 0.010113 0.088937 0.050410
						CHANNELS 3 Zrotation Yrotation Xrotation
						End Site
						{
							OFFSET 0.000000 0.000000 0.000000
						}
					}
				}
				JOINT lclavicle
				{
					OFFSET 0.071702 0.114000 -0.018898
					CHANNELS 3 Zrotation Yrotation Xrotation
					JOINT lshoulder
					{
						OFFSET 0.122921 0.045205 -0.019046
						CHANNELS 3 Zrotation Yrotation Xrotation
						JOINT lelbow
						{
							OFFSET 0.255332 -0.015649 -0.022946
							CHANNELS 3 Zrotation Yrotation Xrotation
							JOINT lwrist
							{
								OFFSET 0.265709 0.012698 -0.007375
								CHANNELS 3 Zrotation Yrotation Xrotation
								End Site
								{
									OFFSET 0.000000 0.000000 0.000000
								}
							}
						}
					}
				}
				JOINT rclavicle
				{
					OFFSET -0.082954 0.112472 -0.023707
					CHANNELS 3 Zrotation Yrotation Xrotation
					JOINT rshoulder
					{
						OFFSET -0.113228 0.046853 -0.008472
						CHANNELS 3 Zrotation Yrotation Xrotation
						JOINT relbow
						{
							OFFSET -0.260127 -0.014369 -0.031269
							CHANNELS 3 Zrotation Yrotation Xrotation
							JOINT rwrist
							{
								OFFSET -0.269108 0.006794 -0.006027
								CHANNELS 3 Zrotation Yrotation Xrotation
								End Site
								{
									OFFSET 0.000000 0.000000 0.000000
								}
							}
						}
					}
				}
			}
		}
	}
}
MOTION
Frames: 13
Frame Time: 0.033333
0.016316 0.217658 0.996734 92.765372 0.726110 86.671456 3.538217 2.364412 4.507412 0.961101 -8.605851 0.639779 -1.497903 6.842122 -5.152164 0.000000 -0.000000 0.000000 -1.668664 -3.226137 5.643656 -1.409290 1.618889 -1.203839 3.004802 -5.521961 -4.647153 0.000000 -0.000000 0.000000 -2.524184 2.665548 -0.729247 0.907333 -4.755128 16.032613 0.272372 -0.935836 -6.435880 3.060548 -2.823881 -4.776085 10.683181 -6.112452 -11.588436 -26.456832 -11.217536 5.643225 -54.732441 -7.029592 15.451966 6.148336 -18.953713 7.891668 -14.920974 -8.315249 12.954569 24.769775 16.278474 5.409572 56.660478 6.597003 14.680771 -5.309928 16.062226 5.190090 14.018629 6.307597 4.885927 
0.016624 0.217488 0.996605 92.702455 0.797987 86.532609 3.639950 2.433344 4.648794 0.971754 -8.691040 0.721312 -1.686147 6.825298 -5.057252 0.000000 -0.000000 0.000000 -1.544062 -3.246362 5.768588 -1.544796 1.801876 -1.024172 2.896877 -5.381025 -4.797374 0.000000 -0.000000 0.000000 -2.263144 2.566299 -0.481411 0.741032 -4.648590 15.597859 0.266974 -0.883843 -6.133383 2.877214 -2.620461 -4.480035 10.400822 -6.060091 -11.697689 -26.413828 -11.331663 5.600976 -54.840283 -6.935211 15.310597 6.259831 -18.890231 7.994682 -15.285735 -8.393161 13.166240 24.852736 16.226814 5.383222 56.670800 6.584496 14.505477 -5.434546 16.046165 5.254941 14.102387 6.431042 5.117511 
0.016696 0.217443 0.996409 92.728000 0.780243 86.502464 3.623264 2.366769 4.652946 0.951064 -8.667724 0.776261 -1.685116 6.871502 -5.082744 0.000000 -0.000000 0.000000 -1.566553 -3.274763 5.784877 -1.548574 1.766465 -1.009091 2.926967 -5.432789 -4.703488 0.000000 -0.000000 0.000000 -2.147858 2.565813 -0.430816 0.698568 -4.674616 15.448982 0.207960 -0.908888 -6.002589 2.608747 -2.335764 -4.000359 10.108141 -5.842689 -11.742300 -26.323917 -11.209079 5.355736 -55.026578 -6.930179 15.512634 6.396888 -18.832600 8.194227 -15.504421 -8.241246 13.312867 24.795508 16.115738 5.213955 56.737518 6.618353 14.577124 -5.443598 15.949146 5.263428 14.287119 6.398631 5.151214 
0.016966 0.217337 0.996237 92.694519 0.723148 86.539638 3.562294 2.417963 4.639650 0.958913 -8.695420 0.765283 -1.721181 6.838341 -5.100002 0.000000 -0.000000 0.000000 -1.639910 -3.296802 5.731101 -1.548154 1.788514 -0.962334 2.944882 -5.369949 -4.688479 0.000000 -0.000000 0.000000 -2.057536 2.493792 -0.672017 0.665089 -4.716006 15.539894 0.059101 -0.886814 -6.043196 2.274651 -2.165588 -3.368043 9.660457 -5.713262 -11.306131 -26.273398 -10.934092 5.131792 -55.143267 -6.967277 15.703002 6.499815 -18.629478 8.185192 -15.442344 -8.338183 13.630244 24.913455 15.965566 5.114253 56.739380 6.703565 14.659310 -5.441518 15.732060 5.100261 14.286790 6.486941 5.434875 
0.017386 0.217283 0.996076 92.605038 0.735501 86.397953 3.571042 2.275001 4.895685 0.972739 -8.558322 0.674197 -1.670061 6.927958 -5.093786 0.000000 -0.000000 0.000000 -1.634692 -3.317810 5.891418 -1.565008 1.846328 -0.969139 3.001994 -5.353156 -4.719316 0.000000 -0.000000 0.000000 -1.941526 2.572906 -0.601505 0.636679 -4.718665 15.428815 0.023030 -0.939215 -5.980637 2.119891 -2.032900 -2.876860 9.381478 -5.601815 -10.802669 -26.248019 -10.781310 5.090909 -55.262869 -6.975012 15.721466 6.609875 -18.607679 8.151075 -15.302601 -8.278981 13.697024 24.878528 15.800501 5.057581 56.818813 6.787628 14.706559 -5.475961 15.689989 5.025842 14.211651 6.412420 5.459990 
0.017725 0.217119 0.995938 92.678871 0.698369 86.397296 3.582516 2.411090 4.898927 0.931949 -8.650897 0.677736 -1.681702 6.803040 -5.105482 0.000000 -0.000000 0.000000 -1.698724 -3.359313 5.928334 -1.533136 1.755567 -0.962980 3.025041 -5.288191 -4.743947 0.000000 -0.000000 0.000000 -1.932570 2.443377 -0.802028 0.656985 -4.724545 15.395407 -0.015921 -0.922804 -5.905446 1.879508 -1.817871 -2.222209 9.020918 -5.534390 -10.002127 -26.237072 -10.577727 5.033371 -55.343331 -7.061142 15.820366 6.617038 -18.575909 8.190452 -15.158281 -8.290723 13.594953 24.880532 15.541016 4.937528 56.838811 6.872887 14.742486 -5.499520 15.689028 4.920574 14.201307 6.406248 5.383837 
0.018213 0.217040 0.995636 92.731065 0.619843 86.444398 3.495774 2.504628 4.834326 0.947204 -8.726429 0.731193 -1.663801 6.757778 -5.132032 0.000000 -0.000000 0.000000 -1.802676 -3.430795 5.904891 -1.526128 1.769951 -0.909860 2.997043 -5.264884 -4.933648 0.000000 -0.000000 0.000000 -1.961329 2.377856 -1.061722 0.669309 -4.699462 15.336759 -0.063969 -0.916017 -5.914571 1.760816 -1.712644 -1.596524 8.602922 -5.368273 -8.715329 -26.099772 -10.276517 4.968850 -55.544226 -7.146842 15.980165 6.514249 -18.578884 8.406412 -14.980898 -8.335581 13.451042 24.855706 15.250089 5.016765 56.892572 7.017601 14.829675 -5.501962 15.697374 4.841176 14.116458 6.480838 5.314202 
0.018802 0.216902 0.995567 92.697264 0.643381 86.302411 3.547848 2.443467 5.045966 0.913240 -8.699224 0.740155 -1.655113 6.831360 -5.235829 0.000000 -0.000000 0.000000 -1.787669 -3.433794 6.075757 -1.515592 1.794999 -0.901230 3.009103 -5.215064 -4.837673 0.000000 -0.000000 0.000000 -1.888146 2.389343 -1.102815 0.685944 -4.681300 15.374056 -0.072961 -0.910427 -5.946993 1.641759 -1.654664 -0.952446 8.235317 -5.212084 -7.744090 -26.179768 -10.032768 5.001811 -55.509548 -7.209002 15.995780 6.500229 -18.685005 8.503150 -14.929616 -8.363349 13.333008 24.872411 15.011215 5.009114 56.837581 7.152300 14.866260 -5.458596 15.642948 4.745158 14.240247 6.499385 5.226945 
0.019199 0.216747 0.995329 92.738009 0.620275 86.261553 3.546243 2.440161 5.074172 0.890716 -8.740532 0.822807 -1.607069 6.825795 -5.257060 0.000000 -0.000000 0.000000 -1.822354 -3.476267 6.134065 -1.500758 1.779376 -0.844928 2.995825 -5.229853 -4.971819 0.000000 -0.000000 0.000000 -1.914429 2.374871 -1.174282 0.698130 -4.692819 15.361364 -0.066853 -0.917359 -5.914793 1.598831 -1.567609 -0.515254 8.062970 -5.025725 -7.149518 -26.135863 -9.916639 5.028276 -55.580094 -7.223371 16.018663 6.546067 -18.819339 8.474280 -14.796387 -8.271109 13.141369 24.900600 14.926409 5.055210 56.770829 7.261447 14.902084 -5.399467 15.605360 4.666273 14.206261 6.466205 5.103675 
0.019477 0.216571 0.995167 92.817876 0.620765 86.206929 3.559719 2.382378 5.095693 0.876509 -8.781224 0.918393 -1.567833 6.831493 -5.336321 0.000000 -0.000000 0.000000 -1.825280 -3.486567 6.184448 -1.473132 1.744274 -0.762194 2.996814 -5.243235 -5.034833 0.000000 -0.000000 0.000000 -1.923637 2.415225 -1.167747 0.724331 -4.707679 15.471916 -0.039050 -0.906831 -5.963748 1.536497 -1.459991 -0.260907 7.973651 -4.957841 -6.998372 -26.159024 -9.944007 5.084415 -55.516642 -7.185340 15.979725 6.511732 -18.999395 8.365891 -14.887901 -8.199425 12.993604 24.965704 14.896115 5.117656 56.701212 7.187582 14.819464 -5.559660 15.842153 4.428027 14.225234 6.466602 5.009300 
0.019608 0.216418 0.995070 92.936873 0.584138 86.223968 3.535295 2.380374 5.043095 0.880579 -8.859324 0.939912 -1.605858 6.772412 -5.326179 0.000000 -0.000000 0.000000 -1.868128 -3.509795 6.139690 -1.443921 1.637211 -0.677856 2.993127 -5.252675 -5.056376 0.000000 -0.000000 0.000000 -1.969100 2.405114 -1.129824 0.738863 -4.694733 15.472217 -0.012339 -0.932682 -5.925374 1.560215 -1.454726 -0.314495 7.913289 -4.935891 -7.006406 -26.098632 -9.931370 5.067759 -55.542145 -7.222292 15.939125 6.479847 -19.046612 8.318866 -14.760895 -8.260285 12.902440 24.937684 14.888695 5.131371 56.700979 7.225632 14.823420 -5.542978 15.874088 4.420398 14.174648 6.498773 4.972697 
0.019685 0.216195 0.995114 93.092651 0.581910 86.246829 3.548615 2.317393 4.925444 0.856813 -8.910887 1.085927 -1.591249 6.758829 -5.335743 0.000000 -0.000000 0.000000 -1.837348 -3.567819 6.119706 -1.466033 1.607816 -0.622803 2.965038 -5.313363 -5.108974 0.000000 -0.000000 0.000000 -1.975716 2.426671 -1.020321 0.735231 -4.723417 15.448458 0.009418 -0.933236 -5.916862 1.547108 -1.500808 -0.533342 7.933360 -4.969051 -7.090644 -26.086006 -9.977910 5.100465 -55.481696 -7.214493 15.893071 6.395208 -19.131632 8.381658 -14.704907 -8.323221 12.819466 24.937096 14.954159 5.164931 56.660116 7.196544 14.773574 -5.511837 15.919582 4.437097 14.170053 6.584181 4.909825 
0.019987 0.216010 0.995176 93.153781 0.565050 86.229558 3.550568 2.301920 4.966350 0.857411 -8.974204 1.072850 -1.598969 6.746236 -5.333165 0.000000 -0.000000 0.000000 -1.848274 -3.621378 6.182007 -1.475627 1.628856 -0.619189 2.919222 -5.333155 -5.125125 0.000000 -0.000000 0.000000 -1.969580 2.442305 -0.831864 0.715104 -4.706554 15.345001 0.040877 -0.899865 -5.910179 1.490582 -1.552392 -0.805124 7.899833 -4.974326 -7.009506 -26.124750 -10.045582 5.168761 -55.433658 -7.160009 15.876374 6.409957 -19.150874 8.395441 -14.599851 -8.341062 12.696432 24.861781 15.021815 5.201591 56.730107 7.178915 14.775437 -5.520406 15.889198 4.395310 14.127876 6.583027 4.729741 
